# Blender 4.4.3
# www.blender.org
mtllib rig.mtl
o Adamant_platebody_male_combined
v 0.190000 1.440000 0.080000
v 0.300000 1.420000 0.110000
v 0.340000 1.440000 0.050000
v 0.340000 1.440000 -0.040000
v 0.300000 1.420000 -0.090000
v 0.220000 1.440000 -0.130000
v 0.160000 1.480000 -0.160000
v 0.080000 1.640000 -0.080000
v 0.080000 1.650000 0.040000
v 0.110000 1.620000 0.080000
v 0.140000 1.560000 0.090000
v 0.210000 1.450000 0.140000
v 0.310000 1.450000 0.130000
v 0.360000 1.460000 0.070000
v 0.360000 1.460000 -0.040000
v 0.320000 1.440000 -0.110000
v 0.240000 1.450000 -0.150000
v 0.160000 1.490000 -0.180000
v 0.090000 1.660000 -0.100000
v 0.090000 1.680000 0.050000
v 0.120000 1.640000 0.090000
v 0.150000 1.560000 0.120000
v 0.280000 1.610000 0.070000
v 0.280000 1.610000 -0.060000
v 0.180000 1.640000 -0.080000
v 0.180000 1.650000 0.040000
v -0.340000 1.440000 0.050000
v -0.300000 1.420000 0.110000
v -0.190000 1.440000 0.080000
v -0.340000 1.440000 -0.040000
v -0.360000 1.460000 -0.040000
v -0.360000 1.460000 0.070000
v -0.310000 1.450000 0.130000
v -0.210000 1.450000 0.140000
v -0.140000 1.560000 0.090000
v -0.110000 1.620000 0.080000
v -0.080000 1.650000 0.040000
v -0.080000 1.640000 -0.080000
v -0.160000 1.480000 -0.160000
v -0.220000 1.440000 -0.130000
v -0.300000 1.420000 -0.090000
v -0.320000 1.440000 -0.110000
v -0.280000 1.610000 -0.060000
v -0.280000 1.610000 0.070000
v -0.150000 1.560000 0.120000
v -0.120000 1.640000 0.090000
v -0.090000 1.680000 0.050000
v -0.090000 1.660000 -0.100000
v -0.160000 1.490000 -0.180000
v -0.240000 1.450000 -0.150000
v -0.180000 1.640000 -0.080000
v -0.180000 1.650000 0.040000
v 0.110000 1.230000 0.050000
v 0.080000 1.230000 -0.080000
v 0.110000 1.140000 -0.080000
v 0.130000 1.140000 0.080000
v -0.110000 1.230000 0.050000
v -0.130000 1.140000 0.080000
v -0.080000 1.230000 -0.080000
v -0.110000 1.140000 -0.080000
v 0.150000 1.230000 -0.010000
v 0.120000 1.230000 -0.100000
v 0.170000 1.150000 -0.080000
v 0.210000 1.160000 0.010000
v 0.150000 1.230000 0.030000
v 0.180000 1.440000 0.080000
v 0.180000 1.440000 -0.080000
v 0.140000 1.330000 -0.110000
v 0.000000 1.230000 -0.120000
v 0.100000 1.130000 -0.140000
v -0.170000 1.150000 -0.080000
v -0.120000 1.230000 -0.100000
v -0.150000 1.230000 -0.010000
v -0.210000 1.160000 0.010000
v -0.150000 1.230000 0.030000
v -0.170000 1.150000 0.100000
v -0.120000 1.240000 0.100000
v -0.100000 1.130000 0.160000
v 0.000000 1.260000 0.120000
v 0.000000 1.100000 0.190000
v 0.100000 1.130000 0.160000
v 0.120000 1.240000 0.100000
v 0.170000 1.150000 0.100000
v 0.000000 1.560000 -0.130000
v 0.070000 1.640000 -0.080000
v -0.070000 1.640000 -0.080000
v -0.150000 1.480000 -0.160000
v 0.000000 1.460000 -0.160000
v 0.150000 1.480000 -0.160000
v 0.130000 1.560000 0.090000
v 0.070000 1.650000 0.040000
v 0.100000 1.620000 0.080000
v 0.000000 1.630000 0.080000
v -0.070000 1.650000 0.040000
v -0.100000 1.620000 0.080000
v -0.130000 1.560000 0.090000
v -0.180000 1.440000 -0.080000
v -0.140000 1.430000 -0.140000
v 0.000000 1.430000 -0.140000
v 0.140000 1.430000 -0.140000
v 0.110000 1.510000 0.110000
v 0.000000 1.560000 0.120000
v -0.110000 1.510000 0.110000
v -0.180000 1.440000 0.080000
v -0.140000 1.330000 -0.110000
v -0.140000 1.410000 -0.140000
v 0.000000 1.410000 -0.140000
v 0.140000 1.410000 -0.140000
v 0.000000 1.340000 -0.140000
v -0.100000 1.130000 -0.140000
v 0.000000 1.100000 -0.170000
v 0.000000 1.420000 0.140000
v 0.140000 1.330000 0.100000
v -0.140000 1.330000 0.100000
v 0.200000 1.450000 0.030000
v 0.200000 1.440000 0.050000
v 0.230000 1.330000 0.040000
v 0.200000 1.450000 -0.050000
v 0.230000 1.300000 -0.020000
v 0.220000 1.420000 -0.050000
v 0.310000 1.460000 -0.050000
v 0.300000 1.420000 -0.050000
v 0.310000 1.320000 -0.020000
v 0.310000 1.460000 0.030000
v 0.310000 1.350000 0.040000
v 0.310000 1.450000 0.050000
v 0.320000 1.330000 0.070000
v 0.220000 1.310000 0.070000
v 0.230000 1.260000 0.070000
v 0.230000 1.250000 0.050000
v 0.250000 1.140000 0.030000
v 0.250000 1.140000 -0.020000
v 0.250000 1.210000 -0.040000
v 0.320000 1.230000 -0.040000
v -0.200000 1.450000 -0.050000
v -0.310000 1.460000 -0.050000
v -0.220000 1.420000 -0.050000
v -0.230000 1.300000 -0.020000
v -0.230000 1.330000 0.040000
v -0.200000 1.450000 0.030000
v -0.200000 1.440000 0.050000
v -0.310000 1.350000 0.040000
v -0.310000 1.450000 0.050000
v -0.310000 1.460000 0.030000
v -0.310000 1.320000 -0.020000
v -0.300000 1.420000 -0.050000
v -0.320000 1.230000 -0.040000
v -0.250000 1.210000 -0.040000
v -0.250000 1.140000 -0.020000
v -0.250000 1.140000 0.030000
v -0.230000 1.250000 0.050000
v -0.230000 1.260000 0.070000
v -0.220000 1.310000 0.070000
v -0.320000 1.330000 0.070000
v -0.320000 1.270000 0.070000
v -0.310000 1.260000 0.050000
v -0.320000 1.140000 -0.020000
v 0.320000 1.140000 -0.020000
v 0.310000 1.260000 0.050000
v 0.320000 1.140000 0.030000
v 0.320000 1.270000 0.070000
v -0.320000 1.140000 0.030000
vn 0.0716 0.9309 0.3581
vn -0.0000 1.0000 -0.0000
vn -0.1862 0.9545 -0.2328
vn 0.2271 0.9733 0.0324
vn 0.5268 0.8466 0.0753
vn 0.8870 0.4605 -0.0341
vn 0.8882 0.4580 -0.0382
vn 0.8540 0.3796 -0.3558
vn 0.8742 0.3885 -0.2914
vn 0.8544 0.3851 -0.3490
vn -0.0159 0.9871 -0.1592
vn 0.3103 0.4535 -0.8355
vn -0.6852 0.5481 -0.4796
vn -0.6172 0.7715 -0.1543
vn -0.7071 0.7071 -0.0000
vn -0.6931 0.6931 0.1980
vn -0.6047 0.7775 0.1728
vn -0.1961 0.7845 0.5883
vn -0.0000 0.8944 0.4472
vn 0.1808 0.7954 0.5785
vn 0.3492 0.8381 0.4191
vn 0.9129 0.3651 0.1826
vn 0.8455 0.1015 0.5242
vn 0.9136 -0.4031 0.0537
vn 0.9456 -0.3242 0.0270
vn 0.7752 -0.0485 -0.6299
vn 0.7720 -0.0702 -0.6317
vn 0.7071 -0.0000 -0.7071
vn 0.8619 0.4179 -0.2873
vn -0.2402 -0.2989 -0.9235
vn -0.0926 -0.3648 -0.9265
vn -0.6844 -0.3650 -0.6312
vn -0.8824 -0.4706 -0.0000
vn -0.7715 -0.3397 0.5379
vn -0.4537 -0.3480 0.8204
vn -0.4741 -0.3386 0.8127
vn -0.3113 -0.4981 0.8093
vn -0.2925 -0.5031 0.8132
vn -0.2422 -0.9617 0.1282
vn -0.3073 -0.9483 0.0790
vn -0.3196 -0.7791 -0.5394
vn -0.5202 -0.4640 -0.7170
vn -0.0369 -0.6570 -0.7530
vn -0.3714 -0.9285 -0.0000
vn -0.3009 -0.9503 0.0792
vn -0.0716 0.9309 0.3581
vn 0.7071 0.7071 -0.0000
vn 0.6172 0.7715 -0.1543
vn 0.6852 0.5481 -0.4796
vn -0.3103 0.4535 -0.8355
vn 0.0159 0.9871 -0.1592
vn -0.8544 0.3851 -0.3490
vn -0.8742 0.3885 -0.2914
vn -0.8540 0.3796 -0.3558
vn -0.8882 0.4580 -0.0382
vn -0.8870 0.4605 -0.0341
vn -0.5268 0.8466 0.0753
vn -0.2271 0.9733 0.0324
vn 0.1862 0.9545 -0.2328
vn 0.6047 0.7775 0.1728
vn 0.6931 0.6931 0.1980
vn 0.7715 -0.3397 0.5379
vn 0.8824 -0.4706 -0.0000
vn 0.6844 -0.3650 -0.6312
vn 0.0926 -0.3648 -0.9265
vn 0.2402 -0.2989 -0.9235
vn -0.8619 0.4179 -0.2873
vn -0.7071 -0.0000 -0.7071
vn -0.7721 -0.0702 -0.6317
vn -0.7752 -0.0485 -0.6299
vn -0.9456 -0.3242 0.0270
vn -0.9136 -0.4031 0.0537
vn -0.8455 0.1015 0.5242
vn -0.9129 0.3651 0.1826
vn -0.3492 0.8381 0.4191
vn -0.1808 0.7954 0.5785
vn 0.1961 0.7845 0.5883
vn 0.4537 -0.3480 0.8204
vn 0.4741 -0.3386 0.8127
vn 0.3113 -0.4981 0.8093
vn 0.3009 -0.9503 0.0792
vn 0.3714 -0.9285 -0.0000
vn 0.0369 -0.6570 -0.7530
vn 0.5202 -0.4640 -0.7170
vn 0.3196 -0.7791 -0.5394
vn 0.3073 -0.9483 0.0790
vn 0.2422 -0.9617 0.1282
vn 0.2925 -0.5031 0.8132
vn -0.9267 -0.3089 0.2139
vn -0.9767 -0.1764 0.1221
vn -0.0000 -0.3162 -0.9487
vn 0.9648 -0.1402 0.2226
vn 0.9421 -0.3140 0.1178
vn -0.0000 -0.0000 1.0000
vn -0.8438 -0.4571 0.2813
vn -0.7507 -0.5313 0.3927
vn -0.7593 -0.6508 -0.0000
vn -0.9899 0.1414 -0.0000
vn -0.9119 0.2410 0.3322
vn -0.9263 0.2161 0.3088
vn -0.1630 0.1304 0.9780
vn -0.1546 -0.3401 0.9276
vn -0.6079 -0.1871 0.7716
vn 0.8438 -0.4571 0.2813
vn 0.7507 -0.5313 0.3927
vn 0.7593 -0.6508 -0.0000
vn 0.7507 -0.5313 -0.3927
vn 0.8361 -0.4645 -0.2920
vn 0.5647 -0.3137 -0.7634
vn 0.2182 -0.4364 -0.8729
vn 0.1528 -0.3961 -0.9054
vn -0.1528 -0.3961 -0.9054
vn -0.2182 -0.4364 -0.8729
vn -0.5647 -0.3137 -0.7634
vn -0.8361 -0.4645 -0.2920
vn -0.7507 -0.5313 -0.3927
vn -0.0000 -0.5300 0.8480
vn 0.0796 -0.4773 0.8751
vn -0.0383 -0.2871 0.9571
vn 0.0383 -0.2871 0.9571
vn -0.0796 -0.4773 0.8751
vn -0.8741 -0.4786 0.0832
vn -0.8425 -0.5368 0.0447
vn -0.8552 -0.3665 0.3665
vn -0.0826 -0.8260 -0.5576
vn -0.0000 -0.8944 -0.4472
vn 0.0826 -0.8260 -0.5576
vn 0.8552 -0.3665 0.3665
vn 0.8425 -0.5368 0.0447
vn 0.8741 -0.4786 0.0832
vn 0.8712 -0.4834 0.0850
vn 0.8048 0.3521 0.4778
vn 0.0506 0.3796 0.9238
vn -0.0000 0.5547 0.8321
vn -0.0506 0.3796 0.9238
vn -0.8048 0.3521 0.4778
vn -0.8712 -0.4834 0.0850
vn -0.9231 -0.3846 -0.0000
vn -0.5044 -0.1391 -0.8522
vn -0.2412 -0.2757 -0.9305
vn -0.2103 -0.2750 -0.9382
vn -0.0496 -0.4955 -0.8672
vn 0.0496 -0.4955 -0.8672
vn 0.2103 -0.2750 -0.9382
vn 0.2412 -0.2757 -0.9305
vn 0.5044 -0.1391 -0.8522
vn 0.9231 -0.3846 -0.0000
vn 0.9899 0.1414 -0.0000
vn 0.9119 0.2410 0.3322
vn 0.8577 0.1806 0.4815
vn 0.8320 -0.0000 0.5547
vn -0.8320 -0.0000 0.5547
vn -0.8577 0.1806 0.4815
vn -0.0000 0.3511 0.9363
vn -0.2095 -0.0000 0.9778
vn -0.1943 0.1755 0.9651
vn 0.1943 0.1755 0.9651
vn 0.1630 0.1304 0.9780
vn 0.1546 -0.3401 0.9276
vn 0.1698 -0.3538 0.9198
vn -0.1698 -0.3538 0.9198
vn 0.2095 -0.0000 0.9778
vn 0.6079 -0.1871 0.7716
vn -0.1997 0.1215 -0.9723
vn -0.1586 0.0352 -0.9867
vn -0.8904 0.1979 -0.4099
vn -0.8612 0.2308 -0.4528
vn -0.3097 -0.0599 -0.9490
vn -0.3233 0.0808 -0.9429
vn -0.1525 -0.1398 -0.9784
vn 0.1525 -0.1398 -0.9784
vn 0.3233 0.0808 -0.9429
vn 0.3097 -0.0599 -0.9490
vn 0.8612 0.2308 -0.4528
vn 0.8904 0.1979 -0.4099
vn 0.1586 0.0352 -0.9867
vn 0.1997 0.1215 -0.9723
vn 0.9263 0.2161 0.3088
vn 0.9600 0.2504 0.1252
vn 0.9701 0.2425 -0.0000
vn 0.9800 0.1782 -0.0891
vn 0.3810 0.2540 0.8890
vn -0.6423 0.1606 0.7494
vn -1.0000 -0.0000 -0.0000
vn -0.0090 0.0995 -0.9950
vn -0.0212 0.0848 -0.9962
vn 0.1961 -0.7845 -0.5883
vn 0.1690 -0.8452 -0.5071
vn 0.9526 -0.2722 0.1361
vn 0.9769 0.1954 0.0868
vn 1.0000 -0.0000 -0.0000
vn 0.9810 0.1579 0.1128
vn 0.9923 0.1240 -0.0000
vn 0.9102 0.1138 0.3982
vn 0.0583 -0.2042 0.9772
vn 0.0528 -0.2110 0.9761
vn -0.0701 0.2802 0.9574
vn -0.0000 0.2425 0.9701
vn -0.3810 0.2540 0.8890
vn -0.9800 0.1782 -0.0891
vn -0.9701 0.2425 -0.0000
vn -0.9600 0.2504 0.1252
vn 0.0212 0.0848 -0.9962
vn 0.0090 0.0995 -0.9950
vn 0.6423 0.1606 0.7494
vn 0.0701 0.2802 0.9574
vn -0.0528 -0.2110 0.9761
vn -0.0583 -0.2042 0.9772
vn -0.9102 0.1138 0.3982
vn -0.9923 0.1240 -0.0000
vn -0.9810 0.1579 0.1128
vn -0.9769 0.1954 0.0868
vn -0.9526 -0.2722 0.1361
vn -0.1690 -0.8452 -0.5071
vn -0.1961 -0.7845 -0.5883
vn 0.9939 -0.0000 0.1104
vn 0.8997 0.3315 0.2841
vn 0.9973 -0.0554 -0.0475
vn 0.9687 -0.0538 -0.2422
vn 0.0619 0.2165 0.9743
vn -0.0000 0.2747 0.9615
vn -0.9973 -0.0554 -0.0475
vn -0.9687 -0.0538 -0.2422
vn -0.0619 0.2165 0.9743
vn -0.0000 0.1644 -0.9864
vn -0.0219 0.1750 -0.9843
vn -0.1111 0.8889 -0.4444
vn -0.1010 0.9091 -0.4041
vn -0.8997 0.3315 0.2841
vn -0.9939 -0.0000 0.1104
vn -0.9965 -0.0830 -0.0000
vn 0.0219 0.1750 -0.9843
vn 0.1138 0.9102 -0.3982
vn 0.0989 0.8900 -0.4450
vn -0.0000 -0.0000 -1.0000
vn 0.9965 -0.0830 -0.0000
vt 0.000000 0.093750
vt 0.000000 0.476562
vt 0.291016 0.125000
vt 0.515625 0.289062
vt 0.166016 0.234375
s 0
usemtl Jagex_HSL_Material
f 1/1/1 2/1/1 3/1/1
f 1/1/2 3/1/2 4/1/2
f 1/1/3 4/1/3 5/1/3
f 1/1/4 5/1/4 6/1/4
f 1/1/5 6/1/5 7/1/5
f 1/1/6 7/1/6 8/1/6
f 1/1/7 8/1/7 9/1/7
f 1/1/8 9/1/8 10/1/8
f 1/1/9 10/1/9 11/1/9
f 1/2/10 11/2/10 12/2/10
f 1/2/11 12/2/11 13/2/11
f 1/2/12 13/2/12 2/2/12
f 2/2/13 13/2/13 14/2/13
f 2/2/14 14/2/14 3/2/14
f 3/2/15 14/2/15 15/2/15
f 3/2/15 15/2/15 4/2/15
f 4/2/16 15/2/16 16/2/16
f 4/2/17 16/2/17 5/2/17
f 5/2/18 16/2/18 17/2/18
f 5/2/19 17/2/19 6/2/19
f 6/2/20 17/2/20 18/2/20
f 6/2/21 18/2/21 7/2/21
f 7/2/22 18/2/22 8/2/22
f 8/2/23 18/2/23 19/2/23
f 8/2/24 19/2/24 20/2/24
f 8/2/25 20/2/25 9/2/25
f 9/2/26 20/2/26 21/2/26
f 9/2/27 21/2/27 10/2/27
f 10/2/28 21/2/28 22/2/28
f 10/2/9 22/2/9 11/2/9
f 11/2/29 22/2/29 12/2/29
f 12/3/30 22/3/30 23/3/30
f 12/3/31 23/3/31 13/3/31
f 13/3/32 23/3/32 14/3/32
f 14/3/33 23/3/33 15/3/33
f 15/3/33 23/3/33 24/3/33
f 15/3/34 24/3/34 16/3/34
f 16/3/35 24/3/35 17/3/35
f 17/3/36 24/3/36 18/3/36
f 18/3/37 24/3/37 25/3/37
f 18/3/38 25/3/38 19/3/38
f 19/3/39 25/3/39 20/3/39
f 20/3/40 25/3/40 26/3/40
f 20/3/41 26/3/41 21/3/41
f 21/3/42 26/3/42 22/3/42
f 22/3/43 26/3/43 23/3/43
f 23/3/44 26/3/44 24/3/44
f 24/3/45 26/3/45 25/3/45
f 27/1/46 28/1/46 29/1/46
f 27/1/2 29/1/2 30/1/2
f 27/2/47 30/2/47 31/2/47
f 27/2/47 31/2/47 32/2/47
f 27/2/48 32/2/48 28/2/48
f 28/2/49 32/2/49 33/2/49
f 28/2/50 33/2/50 29/2/50
f 29/2/51 33/2/51 34/2/51
f 29/2/52 34/2/52 35/2/52
f 29/1/53 35/1/53 36/1/53
f 29/1/54 36/1/54 37/1/54
f 29/1/55 37/1/55 38/1/55
f 29/1/56 38/1/56 39/1/56
f 29/1/57 39/1/57 40/1/57
f 29/1/58 40/1/58 41/1/58
f 29/1/59 41/1/59 30/1/59
f 30/2/60 41/2/60 42/2/60
f 30/2/61 42/2/61 31/2/61
f 31/3/62 42/3/62 43/3/62
f 31/3/63 43/3/63 44/3/63
f 31/3/63 44/3/63 32/3/63
f 32/3/64 44/3/64 33/3/64
f 33/3/65 44/3/65 34/3/65
f 34/3/66 44/3/66 45/3/66
f 34/2/67 45/2/67 35/2/67
f 35/2/53 45/2/53 36/2/53
f 36/2/68 45/2/68 46/2/68
f 36/2/69 46/2/69 37/2/69
f 37/2/70 46/2/70 47/2/70
f 37/2/71 47/2/71 38/2/71
f 38/2/72 47/2/72 48/2/72
f 38/2/73 48/2/73 49/2/73
f 38/2/74 49/2/74 39/2/74
f 39/2/75 49/2/75 40/2/75
f 40/2/76 49/2/76 50/2/76
f 40/2/19 50/2/19 41/2/19
f 41/2/77 50/2/77 42/2/77
f 42/3/78 50/3/78 43/3/78
f 43/3/79 50/3/79 49/3/79
f 43/3/80 49/3/80 51/3/80
f 43/3/81 51/3/81 52/3/81
f 43/3/82 52/3/82 44/3/82
f 44/3/83 52/3/83 45/3/83
f 45/3/84 52/3/84 46/3/84
f 46/3/85 52/3/85 47/3/85
f 47/3/86 52/3/86 51/3/86
f 47/3/87 51/3/87 48/3/87
f 48/3/88 51/3/88 49/3/88
f 53/4/89 54/4/89 55/4/89
f 53/4/90 55/4/90 56/4/90
f 53/4/91 56/4/91 57/4/91
f 57/4/91 56/4/91 58/4/91
f 57/4/92 58/4/92 59/4/92
f 59/4/93 58/4/93 60/4/93
f 59/4/94 60/4/94 54/4/94
f 54/4/94 60/4/94 55/4/94
f 61/5/95 62/5/95 63/5/95
f 61/5/96 63/5/96 64/5/96
f 61/5/97 64/5/97 65/5/97
f 61/5/98 65/5/98 66/5/98
f 61/5/98 66/5/98 67/5/98
f 61/5/99 67/5/99 68/5/99
f 61/5/100 68/5/100 62/5/100
f 62/5/101 68/5/101 69/5/101
f 62/5/102 69/5/102 70/5/102
f 62/5/103 70/5/103 63/5/103
f 71/5/104 72/5/104 73/5/104
f 71/5/105 73/5/105 74/5/105
f 74/5/106 73/5/106 75/5/106
f 74/5/107 75/5/107 76/5/107
f 76/5/108 75/5/108 77/5/108
f 76/5/109 77/5/109 78/5/109
f 78/5/110 77/5/110 79/5/110
f 78/5/111 79/5/111 80/5/111
f 80/5/112 79/5/112 81/5/112
f 81/5/113 79/5/113 82/5/113
f 81/5/114 82/5/114 83/5/114
f 83/5/115 82/5/115 65/5/115
f 83/5/116 65/5/116 64/5/116
f 84/5/117 85/5/117 86/5/117
f 84/5/118 86/5/118 87/5/118
f 84/5/119 87/5/119 88/5/119
f 84/5/120 88/5/120 89/5/120
f 84/5/121 89/5/121 85/5/121
f 85/5/122 89/5/122 90/5/122
f 85/5/123 90/5/123 91/5/123
f 91/5/124 90/5/124 92/5/124
f 91/5/125 92/5/125 93/5/125
f 91/5/126 93/5/126 94/5/126
f 94/5/127 93/5/127 95/5/127
f 94/5/128 95/5/128 96/5/128
f 94/5/129 96/5/129 86/5/129
f 86/5/130 96/5/130 87/5/130
f 87/5/131 96/5/131 97/5/131
f 87/5/132 97/5/132 98/5/132
f 87/5/133 98/5/133 88/5/133
f 88/5/134 98/5/134 99/5/134
f 88/5/134 99/5/134 100/5/134
f 88/5/135 100/5/135 89/5/135
f 89/5/136 100/5/136 67/5/136
f 89/5/137 67/5/137 90/5/137
f 90/5/138 67/5/138 66/5/138
f 90/5/139 66/5/139 101/5/139
f 90/5/140 101/5/140 92/5/140
f 92/5/141 101/5/141 102/5/141
f 92/5/142 102/5/142 93/5/142
f 93/5/143 102/5/143 95/5/143
f 95/5/144 102/5/144 103/5/144
f 95/5/145 103/5/145 96/5/145
f 96/5/146 103/5/146 104/5/146
f 96/5/147 104/5/147 97/5/147
f 97/5/148 104/5/148 75/5/148
f 97/5/148 75/5/148 73/5/148
f 97/5/149 73/5/149 105/5/149
f 97/5/150 105/5/150 106/5/150
f 97/5/151 106/5/151 98/5/151
f 98/5/94 106/5/94 107/5/94
f 98/5/94 107/5/94 99/5/94
f 99/5/94 107/5/94 100/5/94
f 100/5/94 107/5/94 108/5/94
f 100/5/152 108/5/152 67/5/152
f 67/5/153 108/5/153 68/5/153
f 68/5/154 108/5/154 107/5/154
f 68/5/155 107/5/155 109/5/155
f 68/5/156 109/5/156 69/5/156
f 69/5/157 109/5/157 105/5/157
f 69/5/158 105/5/158 72/5/158
f 69/5/159 72/5/159 110/5/159
f 69/5/160 110/5/160 111/5/160
f 69/5/161 111/5/161 70/5/161
f 105/5/162 109/5/162 107/5/162
f 105/5/154 107/5/154 106/5/154
f 72/5/163 71/5/163 110/5/163
f 79/5/164 112/5/164 113/5/164
f 79/5/165 113/5/165 82/5/165
f 82/5/166 113/5/166 65/5/166
f 65/5/167 113/5/167 66/5/167
f 66/5/168 113/5/168 112/5/168
f 66/5/169 112/5/169 101/5/169
f 101/5/170 112/5/170 102/5/170
f 102/5/171 112/5/171 103/5/171
f 103/5/172 112/5/172 104/5/172
f 104/5/173 112/5/173 114/5/173
f 104/5/174 114/5/174 75/5/174
f 75/5/175 114/5/175 77/5/175
f 77/5/176 114/5/176 79/5/176
f 79/5/177 114/5/177 112/5/177
f 73/5/178 72/5/178 105/5/178
f 115/5/179 116/5/179 117/5/179
f 115/5/180 117/5/180 118/5/180
f 118/5/181 117/5/181 119/5/181
f 118/5/182 119/5/182 120/5/182
f 118/5/94 120/5/94 121/5/94
f 121/5/94 120/5/94 122/5/94
f 121/5/183 122/5/183 123/5/183
f 121/5/184 123/5/184 124/5/184
f 124/5/184 123/5/184 125/5/184
f 124/5/184 125/5/184 126/5/184
f 126/5/185 125/5/185 116/5/185
f 116/5/186 125/5/186 117/5/186
f 117/3/187 125/3/187 127/3/187
f 117/3/188 127/3/188 128/3/188
f 117/3/189 128/3/189 119/3/189
f 119/3/190 128/3/190 129/3/190
f 119/3/191 129/3/191 130/3/191
f 119/5/192 130/5/192 131/5/192
f 119/5/193 131/5/193 132/5/193
f 119/5/194 132/5/194 133/5/194
f 119/5/195 133/5/195 134/5/195
f 119/5/196 134/5/196 123/5/196
f 119/5/197 123/5/197 122/5/197
f 119/5/198 122/5/198 120/5/198
f 135/5/94 136/5/94 137/5/94
f 135/5/199 137/5/199 138/5/199
f 135/5/200 138/5/200 139/5/200
f 135/5/201 139/5/201 140/5/201
f 140/5/202 139/5/202 141/5/202
f 141/5/203 139/5/203 142/5/203
f 141/5/204 142/5/204 143/5/204
f 143/5/191 142/5/191 144/5/191
f 144/5/191 142/5/191 145/5/191
f 144/5/191 145/5/191 136/5/191
f 136/5/205 145/5/205 146/5/205
f 136/5/94 146/5/94 137/5/94
f 137/5/198 146/5/198 138/5/198
f 138/5/206 146/5/206 145/5/206
f 138/5/207 145/5/207 147/5/207
f 138/5/208 147/5/208 148/5/208
f 138/5/209 148/5/209 149/5/209
f 138/5/210 149/5/210 150/5/210
f 138/5/211 150/5/211 151/5/211
f 138/3/184 151/3/184 152/3/184
f 138/3/212 152/3/212 153/3/212
f 138/3/213 153/3/213 139/3/213
f 139/3/214 153/3/214 154/3/214
f 139/3/215 154/3/215 142/3/215
f 142/3/189 154/3/189 145/3/189
f 145/3/216 154/3/216 155/3/216
f 145/3/217 155/3/217 156/3/217
f 145/5/218 156/5/218 157/5/218
f 145/5/219 157/5/219 147/5/219
f 147/5/220 157/5/220 148/5/220
f 148/5/221 157/5/221 149/5/221
f 158/5/222 159/5/222 123/5/222
f 158/5/223 123/5/223 134/5/223
f 158/5/224 134/5/224 133/5/224
f 158/5/221 133/5/221 132/5/221
f 159/5/225 160/5/225 131/5/225
f 159/5/226 131/5/226 130/5/226
f 159/3/227 130/3/227 129/3/227
f 159/3/228 129/3/228 161/3/228
f 159/3/229 161/3/229 123/3/229
f 123/3/230 161/3/230 127/3/230
f 123/3/213 127/3/213 125/3/213
f 158/5/231 160/5/231 159/5/231
f 150/5/225 162/5/225 156/5/225
f 150/5/232 156/5/232 151/5/232
f 151/3/233 156/3/233 155/3/233
f 151/3/234 155/3/234 152/3/234
f 152/3/235 155/3/235 154/3/235
f 152/3/235 154/3/235 153/3/235
f 156/5/236 162/5/236 157/5/236
f 161/3/235 129/3/235 128/3/235
f 161/3/235 128/3/235 127/3/235
